<svg width="22" height="24" viewBox="0 0 22 24" fill="none" xmlns="http://www.w3.org/2000/svg">
<path d="M0.353184 23.3243C0.494182 23.47 0.676128 23.5693 0.874897 23.6092C1.07367 23.6492 1.27987 23.6277 1.46617 23.5477L10.9711 19.4748L20.4767 23.5484C20.6605 23.6273 20.8637 23.6492 21.0601 23.6114C21.2565 23.5736 21.437 23.4778 21.5784 23.3363L21.5897 23.325C21.7307 23.1795 21.8241 22.9947 21.8577 22.7949C21.8913 22.5952 21.8634 22.3899 21.7778 22.2063L11.8783 0.993147C11.7981 0.820286 11.6701 0.673956 11.5095 0.571389C11.3488 0.468822 11.1623 0.414291 10.9717 0.414217C10.7811 0.414142 10.5945 0.468528 10.4338 0.570969C10.2731 0.673411 10.145 0.819641 10.0646 0.992439L0.165094 22.2056C0.0795317 22.3894 0.0517702 22.5948 0.0854823 22.7947C0.119194 22.9945 0.212792 23.1795 0.353891 23.325L0.353184 23.3243Z" fill="#7D6BFF"/>
</svg>
