<svg width="48" height="28" viewBox="0 0 48 28" fill="none" xmlns="http://www.w3.org/2000/svg">
<path d="M6.96643 4.35355C6.91908 3.85612 6.71587 3.46968 6.35679 3.19425C5.99772 2.91881 5.5104 2.78109 4.89485 2.78109C4.47659 2.78109 4.12343 2.84275 3.83538 2.96608C3.54734 3.0853 3.32637 3.2518 3.17248 3.46557C3.02253 3.67934 2.94756 3.92189 2.94756 4.19322C2.93967 4.41932 2.98505 4.61665 3.0837 4.7852C3.18629 4.95375 3.32637 5.09969 3.50393 5.22302C3.68149 5.34224 3.88668 5.44707 4.11949 5.53751C4.35229 5.62384 4.60088 5.69784 4.86526 5.75951L5.95431 6.03083C6.48306 6.15416 6.9684 6.3186 7.41034 6.52415C7.85228 6.7297 8.23503 6.98253 8.55859 7.28263C8.88215 7.58273 9.13271 7.93628 9.31028 8.34327C9.49179 8.75026 9.58451 9.21686 9.58846 9.74307C9.58451 10.5159 9.39511 11.186 9.02025 11.7533C8.64934 12.3165 8.1127 12.7544 7.41034 13.0668C6.71192 13.3751 5.86948 13.5293 4.88301 13.5293C3.90444 13.5293 3.05213 13.3731 2.32609 13.0606C1.604 12.7482 1.03974 12.2857 0.633312 11.6732C0.230833 11.0565 0.0197294 10.2939 0 9.38541H2.47998C2.5076 9.80884 2.624 10.1624 2.82919 10.446C3.03832 10.7256 3.3165 10.9373 3.66374 11.0812C4.01492 11.221 4.41148 11.2909 4.85342 11.2909C5.28746 11.2909 5.66429 11.2251 5.98391 11.0935C6.30747 10.962 6.55803 10.779 6.7356 10.5447C6.91316 10.3104 7.00194 10.0411 7.00194 9.7369C7.00194 9.45324 6.92105 9.2148 6.75927 9.02158C6.60144 8.82837 6.36863 8.66393 6.06085 8.52826C5.75702 8.3926 5.38414 8.26927 4.9422 8.15828L3.62231 7.81295C2.60033 7.55396 1.7934 7.14902 1.20152 6.59815C0.609637 6.04728 0.315669 5.30524 0.319615 4.37205C0.315669 3.6074 0.51099 2.93936 0.905577 2.36794C1.30411 1.79651 1.85061 1.35046 2.54508 1.02981C3.23956 0.709147 4.02873 0.548818 4.91261 0.548818C5.81226 0.548818 6.59749 0.709147 7.26829 1.02981C7.94303 1.35046 8.46783 1.79651 8.84269 2.36794C9.21755 2.93936 9.41089 3.60123 9.42273 4.35355H6.96643Z" fill="#65FF99"/>
<path d="M15.3726 13.5355C14.4532 13.5355 13.6581 13.332 12.9873 12.925C12.3205 12.5139 11.8055 11.9424 11.4425 11.2107C11.0795 10.4748 10.898 9.62179 10.898 8.65159C10.898 7.67318 11.0795 6.81809 11.4425 6.08633C11.8055 5.35046 12.3205 4.77903 12.9873 4.37205C13.6581 3.96095 14.4532 3.7554 15.3726 3.7554C16.292 3.7554 17.0851 3.96095 17.752 4.37205C18.4228 4.77903 18.9397 5.35046 19.3027 6.08633C19.6657 6.81809 19.8472 7.67318 19.8472 8.65159C19.8472 9.62179 19.6657 10.4748 19.3027 11.2107C18.9397 11.9424 18.4228 12.5139 17.752 12.925C17.0851 13.332 16.292 13.5355 15.3726 13.5355ZM15.3844 11.5005C15.8027 11.5005 16.1519 11.3772 16.4321 11.1305C16.7122 10.8798 16.9233 10.5385 17.0654 10.1069C17.2114 9.67523 17.2844 9.18397 17.2844 8.6331C17.2844 8.08222 17.2114 7.59096 17.0654 7.1593C16.9233 6.72765 16.7122 6.38643 16.4321 6.13566C16.1519 5.88489 15.8027 5.75951 15.3844 5.75951C14.9622 5.75951 14.6071 5.88489 14.3191 6.13566C14.035 6.38643 13.8199 6.72765 13.6739 7.1593C13.5319 7.59096 13.4608 8.08222 13.4608 8.6331C13.4608 9.18397 13.5319 9.67523 13.6739 10.1069C13.8199 10.5385 14.035 10.8798 14.3191 11.1305C14.6071 11.3772 14.9622 11.5005 15.3844 11.5005Z" fill="#65FF99"/>
<path d="M25.5944 13.5355C24.6632 13.5355 23.8621 13.3299 23.1913 12.9188C22.5245 12.5036 22.0115 11.9281 21.6525 11.1922C21.2973 10.4563 21.1198 9.60946 21.1198 8.65159C21.1198 7.6814 21.2993 6.83042 21.6584 6.09866C22.0214 5.3628 22.5363 4.78931 23.2032 4.37821C23.87 3.963 24.6632 3.7554 25.5825 3.7554C26.3757 3.7554 27.0701 3.90545 27.666 4.20555C28.2618 4.50565 28.7333 4.92703 29.0806 5.46968C29.4278 6.01233 29.6192 6.64954 29.6547 7.3813H27.2753C27.2082 6.90853 27.0307 6.52826 26.7426 6.24049C26.4585 5.94861 26.0856 5.80267 25.624 5.80267C25.2333 5.80267 24.892 5.91367 24.6 6.13566C24.312 6.35355 24.0871 6.67215 23.9253 7.09147C23.7635 7.51079 23.6826 8.0185 23.6826 8.6146C23.6826 9.21891 23.7615 9.73279 23.9194 10.1562C24.0811 10.5797 24.308 10.9024 24.6 11.1244C24.892 11.3464 25.2333 11.4574 25.624 11.4574C25.912 11.4574 26.1705 11.3957 26.3993 11.2724C26.6321 11.149 26.8235 10.9702 26.9735 10.7359C27.1273 10.4974 27.228 10.2117 27.2753 9.87873H29.6547C29.6152 10.6023 29.4258 11.2395 29.0865 11.7903C28.7511 12.3371 28.2874 12.7646 27.6956 13.073C27.1037 13.3813 26.4033 13.5355 25.5944 13.5355Z" fill="#65FF99"/>
<path d="M31.269 13.3505V3.87873H33.7904V13.3505H31.269ZM32.5357 2.65776C32.1608 2.65776 31.8392 2.52826 31.5709 2.26927C31.3065 2.00617 31.1743 1.69168 31.1743 1.3258C31.1743 0.964029 31.3065 0.653649 31.5709 0.394656C31.8392 0.131552 32.1608 0 32.5357 0C32.9105 0 33.2301 0.131552 33.4945 0.394656C33.7628 0.653649 33.897 0.964029 33.897 1.3258C33.897 1.69168 33.7628 2.00617 33.4945 2.26927C33.2301 2.52826 32.9105 2.65776 32.5357 2.65776Z" fill="#65FF99"/>
<path d="M38.4027 13.5293C37.8226 13.5293 37.3057 13.4245 36.8519 13.2148C36.3982 13.001 36.0391 12.6865 35.7747 12.2713C35.5143 11.852 35.3841 11.3299 35.3841 10.705C35.3841 10.1788 35.4768 9.7369 35.6623 9.37924C35.8477 9.02158 36.1002 8.73382 36.4199 8.51593C36.7395 8.29805 37.1025 8.13361 37.5089 8.02261C37.9193 7.91161 38.3494 7.83351 38.7992 7.78829C39.328 7.73073 39.7541 7.67729 40.0777 7.62796C40.4012 7.57451 40.636 7.4964 40.782 7.39363C40.928 7.29085 41.001 7.13875 41.001 6.93731V6.90031C41.001 6.50977 40.8826 6.20761 40.6459 5.99383C40.4131 5.78006 40.0816 5.67318 39.6515 5.67318C39.1978 5.67318 38.8367 5.77801 38.5684 5.98767C38.3001 6.19322 38.1225 6.45221 38.0357 6.76465L35.7037 6.56732C35.8221 5.99178 36.0549 5.49435 36.4021 5.07503C36.7493 4.65159 37.1972 4.32682 37.7457 4.10072C38.2981 3.8705 38.9373 3.7554 39.6634 3.7554C40.1684 3.7554 40.6518 3.81706 41.1135 3.94039C41.5791 4.06372 41.9914 4.25488 42.3505 4.51388C42.7135 4.77287 42.9996 5.10586 43.2087 5.51285C43.4179 5.91573 43.5224 6.39877 43.5224 6.96197V13.3505H41.1312V12.037H41.0602C40.9142 12.333 40.7189 12.594 40.4742 12.8201C40.2296 13.0421 39.9356 13.2169 39.5923 13.3443C39.249 13.4676 38.8525 13.5293 38.4027 13.5293ZM39.1248 11.7163C39.4957 11.7163 39.8232 11.6403 40.1073 11.4882C40.3914 11.332 40.6143 11.1223 40.7761 10.8592C40.9379 10.5961 41.0188 10.298 41.0188 9.96506V8.95992C40.9399 9.01336 40.8313 9.06269 40.6932 9.10792C40.5591 9.14903 40.4072 9.18808 40.2375 9.22508C40.0678 9.25797 39.8981 9.2888 39.7285 9.31758C39.5588 9.34224 39.4049 9.36485 39.2668 9.38541C38.9709 9.43063 38.7124 9.50257 38.4914 9.60123C38.2705 9.6999 38.0988 9.83351 37.9765 10.0021C37.8542 10.1665 37.793 10.372 37.793 10.6187C37.793 10.9764 37.9173 11.2497 38.1659 11.4389C38.4184 11.6238 38.7381 11.7163 39.1248 11.7163Z" fill="#65FF99"/>
<path d="M48 0.72148V13.3505H45.4786V0.72148H48Z" fill="#65FF99"/>
<path d="M0.390641 27.8212V15.1922H5.17303C6.09242 15.1922 6.87567 15.3751 7.5228 15.741C8.16992 16.1028 8.66315 16.6064 9.0025 17.2518C9.34579 17.8931 9.51743 18.6331 9.51743 19.4717C9.51743 20.3104 9.34382 21.0504 8.99658 21.6917C8.64934 22.333 8.14624 22.8325 7.48728 23.1901C6.83227 23.5478 6.03915 23.7266 5.10793 23.7266H2.05974V21.5868H4.69361C5.18684 21.5868 5.59327 21.4985 5.91288 21.3217C6.23644 21.1408 6.47714 20.8921 6.63498 20.5755C6.79676 20.2549 6.87765 19.8869 6.87765 19.4717C6.87765 19.0524 6.79676 18.6865 6.63498 18.3741C6.47714 18.0576 6.23644 17.813 5.91288 17.6403C5.58932 17.4635 5.17895 17.3751 4.68177 17.3751H2.95348V27.8212H0.390641Z" fill="#65FF99"/>
<path d="M13.483 28C12.903 28 12.3861 27.8952 11.9323 27.6855C11.4785 27.4717 11.1195 27.1572 10.8551 26.742C10.5947 26.3227 10.4644 25.8006 10.4644 25.1757C10.4644 24.6495 10.5572 24.2076 10.7426 23.85C10.9281 23.4923 11.1806 23.2045 11.5002 22.9866C11.8198 22.7688 12.1829 22.6043 12.5893 22.4933C12.9997 22.3823 13.4298 22.3042 13.8796 22.259C14.4083 22.2014 14.8345 22.148 15.1581 22.0987C15.4816 22.0452 15.7164 21.9671 15.8624 21.8643C16.0084 21.7616 16.0814 21.6095 16.0814 21.408V21.371C16.0814 20.9805 15.963 20.6783 15.7263 20.4645C15.4934 20.2508 15.162 20.1439 14.7319 20.1439C14.2781 20.1439 13.9171 20.2487 13.6488 20.4584C13.3804 20.6639 13.2029 20.9229 13.1161 21.2354L10.7841 21.038C10.9024 20.4625 11.1352 19.9651 11.4825 19.5457C11.8297 19.1223 12.2776 18.7975 12.826 18.5714C13.3785 18.3412 14.0177 18.2261 14.7437 18.2261C15.2488 18.2261 15.7322 18.2878 16.1938 18.4111C16.6595 18.5344 17.0718 18.7256 17.4309 18.9846C17.7939 19.2436 18.08 19.5766 18.2891 19.9836C18.4982 20.3864 18.6028 20.8695 18.6028 21.4327V27.8212H16.2116V26.5077H16.1406C15.9946 26.8037 15.7993 27.0648 15.5546 27.2909C15.31 27.5128 15.016 27.6876 14.6727 27.815C14.3294 27.9383 13.9329 28 13.483 28ZM14.2051 26.1871C14.576 26.1871 14.9035 26.111 15.1876 25.9589C15.4717 25.8027 15.6947 25.593 15.8565 25.3299C16.0183 25.0668 16.0991 24.7688 16.0991 24.4358V23.4306C16.0202 23.4841 15.9117 23.5334 15.7736 23.5786C15.6394 23.6197 15.4875 23.6588 15.3179 23.6958C15.1482 23.7287 14.9785 23.7595 14.8088 23.7883C14.6392 23.813 14.4853 23.8356 14.3472 23.8561C14.0512 23.9013 13.7928 23.9733 13.5718 24.0719C13.3508 24.1706 13.1792 24.3042 13.0569 24.4728C12.9346 24.6372 12.8734 24.8428 12.8734 25.0894C12.8734 25.4471 12.9977 25.7205 13.2463 25.9096C13.4988 26.0946 13.8184 26.1871 14.2051 26.1871Z" fill="#65FF99"/>
<path d="M20.559 27.8212V18.3494H23.0034V20.0021H23.0981C23.2638 19.4142 23.542 18.9702 23.9327 18.6701C24.3233 18.3659 24.7731 18.2138 25.2822 18.2138C25.4084 18.2138 25.5446 18.222 25.6906 18.2384C25.8366 18.2549 25.9648 18.2775 26.0753 18.3063V20.6372C25.9569 20.6002 25.7931 20.5673 25.584 20.5385C25.3749 20.5098 25.1835 20.4954 25.0099 20.4954C24.639 20.4954 24.3075 20.5797 24.0155 20.7482C23.7275 20.9126 23.4986 21.1429 23.329 21.4389C23.1632 21.7348 23.0804 22.0761 23.0804 22.4625V27.8212H20.559Z" fill="#65FF99"/>
<path d="M29.6636 25.0956L29.6695 21.9445H30.0364L32.9485 18.3494H35.8428L31.9305 23.11H31.3327L29.6636 25.0956ZM27.3789 27.8212V15.1922H29.9003V27.8212H27.3789ZM33.0609 27.8212L30.3856 23.6958L32.0666 21.8397L36.0144 27.8212H33.0609Z" fill="#65FF99"/>
<path d="M38.5536 27.9815C38.163 27.9815 37.8276 27.8376 37.5474 27.5498C37.2712 27.258 37.1331 26.9085 37.1331 26.5015C37.1331 26.0987 37.2712 25.7533 37.5474 25.4656C37.8276 25.1778 38.163 25.0339 38.5536 25.0339C38.9324 25.0339 39.2639 25.1778 39.548 25.4656C39.8321 25.7533 39.9741 26.0987 39.9741 26.5015C39.9741 26.7729 39.907 27.0216 39.7729 27.2477C39.6427 27.4697 39.471 27.6485 39.2579 27.7842C39.0449 27.9157 38.8101 27.9815 38.5536 27.9815Z" fill="#65FF99"/>
</svg>
