<svg width="209" height="117" viewBox="0 0 209 117" fill="none" xmlns="http://www.w3.org/2000/svg">
<path d="M30.333 18.1916C30.1268 16.1131 29.242 14.4983 27.6785 13.3474C26.1151 12.1964 23.9932 11.621 21.313 11.621C19.4918 11.621 17.9541 11.8787 16.6999 12.394C15.4457 12.8922 14.4836 13.5879 13.8135 14.4811C13.1606 15.3744 12.8342 16.3879 12.8342 17.5217C12.7998 18.4665 12.9974 19.291 13.4269 19.9953C13.8736 20.6996 14.4836 21.3094 15.2567 21.8248C16.0298 22.3229 16.9233 22.761 17.9369 23.1389C18.9506 23.4996 20.033 23.8088 21.1841 24.0665L25.9261 25.2003C28.2283 25.7156 30.3416 26.4027 32.2659 27.2616C34.1901 28.1205 35.8567 29.177 37.2655 30.431C38.6744 31.685 39.7653 33.1623 40.5385 34.8629C41.3288 36.5636 41.7326 38.5133 41.7497 40.7121C41.7326 43.9416 40.9079 46.7416 39.2757 49.1122C37.6607 51.4656 35.3241 53.295 32.2659 54.6006C29.2248 55.8889 25.5567 56.5331 21.2614 56.5331C17.0006 56.5331 13.2895 55.8804 10.1282 54.5748C6.98406 53.2693 4.52718 51.3367 2.75755 48.7772C1.00509 46.2005 0.0859049 43.014 0 39.2176H10.7982C10.9185 40.9869 11.4253 42.4643 12.3188 43.6495C13.2293 44.8177 14.4406 45.7023 15.9525 46.3036C17.4816 46.8876 19.2083 47.1796 21.1326 47.1796C23.0225 47.1796 24.6633 46.9048 26.0549 46.3551C27.4638 45.8054 28.5548 45.041 29.3279 44.0618C30.1011 43.0827 30.4876 41.9575 30.4876 40.6863C30.4876 39.501 30.1354 38.5047 29.431 37.6973C28.7438 36.89 27.7301 36.2028 26.39 35.636C25.067 35.0691 23.4434 34.5537 21.5192 34.0899L15.7721 32.647C11.3223 31.5648 7.80875 29.8727 5.2316 27.5708C2.65446 25.269 1.37448 22.1683 1.39166 18.2689C1.37448 15.0738 2.22494 12.2823 3.94303 9.89459C5.67831 7.50683 8.05787 5.64301 11.0817 4.30311C14.1056 2.96322 17.5418 2.29328 21.3903 2.29328C25.3076 2.29328 28.7266 2.96322 31.6473 4.30311C34.5853 5.64301 36.8704 7.50683 38.5025 9.89459C40.1347 12.2823 40.9766 15.048 41.0281 18.1916H30.333Z" fill="#65FF99"/>
<path d="M66.9349 56.5589C62.9317 56.5589 59.4698 55.7086 56.549 54.0079C53.6454 52.2901 51.4033 49.9024 49.8227 46.8447C48.242 43.7698 47.4517 40.2053 47.4517 36.1513C47.4517 32.0629 48.242 28.4899 49.8227 25.4322C51.4033 22.3573 53.6454 19.9695 56.549 18.2689C59.4698 16.5511 62.9317 15.6922 66.9349 15.6922C70.9381 15.6922 74.3914 16.5511 77.295 18.2689C80.2158 19.9695 82.4665 22.3573 84.0471 25.4322C85.6278 28.4899 86.4181 32.0629 86.4181 36.1513C86.4181 40.2053 85.6278 43.7698 84.0471 46.8447C82.4665 49.9024 80.2158 52.2901 77.295 54.0079C74.3914 55.7086 70.9381 56.5589 66.9349 56.5589ZM66.9864 48.0557C68.8076 48.0557 70.3281 47.5404 71.548 46.5097C72.7678 45.4618 73.687 44.036 74.3055 42.2323C74.9412 40.4286 75.2591 38.3759 75.2591 36.074C75.2591 33.7721 74.9412 31.7194 74.3055 29.9157C73.687 28.112 72.7678 26.6862 71.548 25.6383C70.3281 24.5904 68.8076 24.0665 66.9864 24.0665C65.1481 24.0665 63.6018 24.5904 62.3476 25.6383C61.1105 26.6862 60.1742 28.112 59.5385 29.9157C58.92 31.7194 58.6107 33.7721 58.6107 36.074C58.6107 38.3759 58.92 40.4286 59.5385 42.2323C60.1742 44.036 61.1105 45.4618 62.3476 46.5097C63.6018 47.5404 65.1481 48.0557 66.9864 48.0557Z" fill="#65FF99"/>
<path d="M111.442 56.5589C107.387 56.5589 103.9 55.7 100.979 53.9822C98.0754 52.2472 95.8419 49.8422 94.2784 46.7674C92.7321 43.6925 91.959 40.1538 91.959 36.1513C91.959 32.0973 92.7407 28.5414 94.3042 25.4837C95.8848 22.4088 98.1269 20.0125 101.031 18.2947C103.934 16.5597 107.387 15.6922 111.391 15.6922C114.844 15.6922 117.868 16.3192 120.462 17.5732C123.057 18.8272 125.11 20.5879 126.622 22.8555C128.133 25.123 128.967 27.7856 129.121 30.8433H118.761C118.469 28.8678 117.696 27.2788 116.442 26.0764C115.205 24.8567 113.581 24.2469 111.571 24.2469C109.87 24.2469 108.384 24.7107 107.113 25.6383C105.858 26.5487 104.879 27.8801 104.175 29.6322C103.47 31.3844 103.118 33.5059 103.118 35.9967C103.118 38.5219 103.462 40.6691 104.149 42.4385C104.853 44.2078 105.841 45.5563 107.113 46.4839C108.384 47.4115 109.87 47.8754 111.571 47.8754C112.825 47.8754 113.951 47.6177 114.947 47.1023C115.961 46.587 116.794 45.8398 117.447 44.8606C118.117 43.8643 118.555 42.6704 118.761 41.279H129.121C128.95 44.3023 128.125 46.9649 126.647 49.2668C125.187 51.5515 123.168 53.338 120.591 54.6263C118.014 55.9147 114.964 56.5589 111.442 56.5589Z" fill="#65FF99"/>
<path d="M136.151 55.7859V16.2075H147.129V55.7859H136.151ZM141.666 11.1056C140.033 11.1056 138.633 10.5645 137.465 9.48231C136.314 8.38291 135.738 7.06879 135.738 5.53994C135.738 4.02826 136.314 2.73132 137.465 1.6491C138.633 0.5497 140.033 0 141.666 0C143.298 0 144.689 0.5497 145.841 1.6491C147.009 2.73132 147.593 4.02826 147.593 5.53994C147.593 7.06879 147.009 8.38291 145.841 9.48231C144.689 10.5645 143.298 11.1056 141.666 11.1056Z" fill="#65FF99"/>
<path d="M167.212 56.5331C164.686 56.5331 162.435 56.0951 160.459 55.219C158.484 54.3257 156.92 53.0116 155.769 51.2766C154.635 49.5245 154.068 47.3428 154.068 44.7318C154.068 42.533 154.472 40.6863 155.279 39.1918C156.087 37.6973 157.186 36.4949 158.578 35.5844C159.97 34.674 161.55 33.9869 163.32 33.5231C165.107 33.0592 166.98 32.7329 168.938 32.5439C171.241 32.3034 173.096 32.0801 174.505 31.874C175.914 31.6506 176.936 31.3243 177.572 30.8948C178.207 30.4654 178.525 29.8298 178.525 28.988V28.8334C178.525 27.2015 178.01 25.9389 176.979 25.0457C175.965 24.1524 174.522 23.7058 172.649 23.7058C170.674 23.7058 169.102 24.1438 167.933 25.0199C166.765 25.8788 165.992 26.961 165.614 28.2666L155.46 27.442C155.975 25.0371 156.989 22.9585 158.501 21.2064C160.013 19.437 161.963 18.0799 164.351 17.1351C166.756 16.1732 169.54 15.6922 172.701 15.6922C174.9 15.6922 177.005 15.9499 179.015 16.4652C181.042 16.9806 182.838 17.7793 184.401 18.8615C185.982 19.9438 187.227 21.3352 188.138 23.0358C189.049 24.7193 189.504 26.7377 189.504 29.0911V55.7859H179.092V50.2975H178.783C178.147 51.5343 177.297 52.6251 176.232 53.5699C175.166 54.4975 173.886 55.2276 172.392 55.7601C170.897 56.2754 169.17 56.5331 167.212 56.5331ZM170.356 48.9576C171.971 48.9576 173.397 48.6398 174.634 48.0042C175.871 47.3514 176.842 46.4753 177.546 45.3759C178.25 44.2765 178.603 43.0311 178.603 41.6397V37.4397C178.259 37.663 177.786 37.8691 177.185 38.0581C176.601 38.2299 175.94 38.393 175.201 38.5476C174.462 38.6851 173.723 38.8139 172.984 38.9342C172.246 39.0372 171.576 39.1317 170.974 39.2176C169.686 39.4066 168.56 39.7072 167.598 40.1194C166.636 40.5317 165.889 41.09 165.356 41.7943C164.823 42.4814 164.557 43.3403 164.557 44.371C164.557 45.8655 165.098 47.0079 166.181 47.7981C167.28 48.5711 168.672 48.9576 170.356 48.9576Z" fill="#65FF99"/>
<path d="M209 3.01476V55.7859H198.021V3.01476H209Z" fill="#65FF99"/>
<path d="M1.70092 116.253V63.4817H22.5242C26.5274 63.4817 29.9378 64.2461 32.7555 65.7749C35.5732 67.2866 37.7208 69.3909 39.1984 72.0879C40.6931 74.7677 41.4405 77.8597 41.4405 81.3641C41.4405 84.8684 40.6845 87.9604 39.1726 90.6402C37.6607 93.32 35.4701 95.4072 32.6009 96.9016C29.7488 98.3961 26.2955 99.1434 22.2408 99.1434H8.96846V90.2022H20.4368C22.5844 90.2022 24.354 89.8329 25.7457 89.0942C27.1545 88.3384 28.2026 87.2991 28.8898 85.9764C29.5942 84.6365 29.9464 83.099 29.9464 81.3641C29.9464 79.6119 29.5942 78.083 28.8898 76.7775C28.2026 75.4548 27.1545 74.4327 25.7457 73.7112C24.3368 72.9726 22.55 72.6032 20.3852 72.6032H12.86V116.253H1.70092Z" fill="#65FF99"/>
<path d="M58.7074 117C56.1818 117 53.931 116.562 51.9552 115.686C49.9794 114.793 48.416 113.478 47.2648 111.744C46.1309 109.991 45.5639 107.81 45.5639 105.199C45.5639 103 45.9677 101.153 46.7752 99.6587C47.5827 98.1642 48.6823 96.9618 50.0739 96.0513C51.4656 95.1409 53.0462 94.4538 54.8159 93.99C56.6027 93.5261 58.4754 93.1998 60.434 93.0108C62.7363 92.7703 64.5918 92.547 66.0007 92.3409C67.4095 92.1175 68.4318 91.7912 69.0675 91.3617C69.7032 90.9323 70.021 90.2967 70.021 89.4549V89.3003C70.021 87.6684 69.5056 86.4058 68.4747 85.5126C67.4611 84.6193 66.0179 84.1727 64.1451 84.1727C62.1693 84.1727 60.5973 84.6107 59.429 85.4868C58.2607 86.3457 57.4875 87.4279 57.1095 88.7335L46.9556 87.9089C47.471 85.504 48.4847 83.4254 49.9966 81.6733C51.5085 79.9039 53.4586 78.5468 55.8467 77.602C58.2521 76.6401 61.0354 76.1591 64.1967 76.1591C66.3958 76.1591 68.5005 76.4168 70.5107 76.9321C72.538 77.4474 74.3334 78.2462 75.8969 79.3284C77.4776 80.4107 78.7232 81.8021 79.6338 83.5027C80.5444 85.1862 80.9997 87.2046 80.9997 89.558V116.253H70.588V110.764H70.2787C69.643 112.001 68.7926 113.092 67.7274 114.037C66.6621 114.964 65.3822 115.694 63.8874 116.227C62.3927 116.742 60.666 117 58.7074 117ZM61.8515 109.424C63.4665 109.424 64.8925 109.107 66.1295 108.471C67.3666 107.818 68.3373 106.942 69.0417 105.843C69.7461 104.743 70.0983 103.498 70.0983 102.107V97.9066C69.7547 98.1299 69.2822 98.336 68.6809 98.525C68.0968 98.6968 67.4353 98.8599 66.6965 99.0145C65.9577 99.152 65.2189 99.2808 64.4802 99.4011C63.7414 99.5041 63.0713 99.5986 62.47 99.6845C61.1814 99.8735 60.0561 100.174 59.0939 100.586C58.1318 100.999 57.3844 101.557 56.8518 102.261C56.3192 102.948 56.0529 103.807 56.0529 104.838C56.0529 106.332 56.5941 107.475 57.6765 108.265C58.7761 109.038 60.1677 109.424 61.8515 109.424Z" fill="#65FF99"/>
<path d="M89.5171 116.253V76.6744H100.161V83.58H100.573C101.295 81.1236 102.506 79.2683 104.207 78.0143C105.908 76.7431 107.866 76.1076 110.083 76.1076C110.633 76.1076 111.225 76.1419 111.861 76.2106C112.497 76.2793 113.055 76.3738 113.536 76.4941V86.234C113.021 86.0794 112.308 85.942 111.397 85.8218C110.486 85.7015 109.653 85.6414 108.897 85.6414C107.282 85.6414 105.839 85.9936 104.568 86.6979C103.313 87.385 102.317 88.3469 101.578 89.5838C100.857 90.8206 100.496 92.2464 100.496 93.8611V116.253H89.5171Z" fill="#65FF99"/>
<path d="M129.16 104.864L129.186 91.6967H130.784L143.463 76.6744H156.065L139.031 96.5667H136.428L129.16 104.864ZM119.212 116.253V63.4817H130.191V116.253H119.212ZM143.953 116.253L132.304 99.0145L139.623 91.2586L156.813 116.253H143.953Z" fill="#65FF99"/>
<path d="M167.869 116.923C166.168 116.923 164.707 116.321 163.488 115.119C162.285 113.899 161.684 112.439 161.684 110.739C161.684 109.055 162.285 107.612 163.488 106.41C164.707 105.207 166.168 104.606 167.869 104.606C169.518 104.606 170.961 105.207 172.198 106.41C173.435 107.612 174.054 109.055 174.054 110.739C174.054 111.872 173.762 112.912 173.178 113.856C172.611 114.784 171.863 115.531 170.936 116.098C170.008 116.648 168.986 116.923 167.869 116.923Z" fill="#65FF99"/>
</svg>
